# xmcd
#
# Track frame offsets:
#	200
#	13425
#	28975
#	42247
#	58987
#	77837
#	92625
#	105142
#	125202
#	141887
#	152605
#
# Disc length: 2180 seconds
#
# Revision: 2
# Processed by: cddbd v1.4b42PL1 Copyright (c) Steve Scherf et al.
# Submitted via: EasyCDDAExtractor 4.5.0.2
#
DISCID=9508820b
DTITLE=Alison Krauss - Too Late to Cry
DYEAR=1987
DGENRE=Bluegrass
TTITLE0=Too Late To Cry
TTITLE1=Foolish Heart
TTITLE2=Song For Life
TTITLE3=Dusty Miller
TTITLE4=If I Give My Heart
TTITLE5=In Your Eyes
TTITLE6=Don't Follow Me
TTITLE7=Gentle River
TTITLE8=On The Borderline
TTITLE9=Forgotten Pictures
TTITLE10=Sleep On
EXTD=
EXTT0=
EXTT1=
EXTT2=
EXTT3=
EXTT4=
EXTT5=
EXTT6=
EXTT7=
EXTT8=
EXTT9=
EXTT10=
PLAYORDER=
